HIERARCHY
ROOT Hips
{
    OFFSET 0.000000 0.000000 0.000000
    CHANNELS 6 Xposition Yposition Zposition Zrotation Xrotation Yrotation
    JOINT Spine
    {
        OFFSET -0.000000 7.236184 0.000000
        CHANNELS 3 Zrotation Xrotation Yrotation
        JOINT Spine1
        {
            OFFSET -0.000000 20.420147 0.000000
            CHANNELS 3 Zrotation Xrotation Yrotation
            JOINT Neck
            {
                OFFSET -0.000000 20.336288 1.848754
                CHANNELS 3 Zrotation Xrotation Yrotation
                JOINT Head
                {
                    OFFSET -0.000000 12.354461 -1.764923
                    CHANNELS 3 Zrotation Xrotation Yrotation
                    End Site
                    {
                        OFFSET -0.000000 22.061537 0.000000
                    }
                }
            }
            JOINT LeftShoulder
            {
                OFFSET 3.573296 18.396038 -0.314103
                CHANNELS 3 Zrotation Xrotation Yrotation
                JOINT LeftArm
                {
                    OFFSET 10.880760 0.000000 0.000000
                    CHANNELS 3 Zrotation Xrotation Yrotation
                    JOINT LeftForeArm
                    {
                        OFFSET 27.185530 0.000000 0.000000
                        CHANNELS 3 Zrotation Xrotation Yrotation
                        JOINT LeftHand
                        {
                            OFFSET 27.825975 0.000000 0.000000
                            CHANNELS 3 Zrotation Xrotation Yrotation
                            End Site
                            {
                                OFFSET 13.236923 0.000000 0.000000
                            }
                        }
                    }
                }
            }
            JOINT RightShoulder
            {
                OFFSET -3.474926 18.396038 -0.314103
                CHANNELS 3 Zrotation Xrotation Yrotation
                JOINT RightArm
                {
                    OFFSET -10.880760 0.000000 0.000000
                    CHANNELS 3 Zrotation Xrotation Yrotation
                    JOINT RightForeArm
                    {
                        OFFSET -27.185530 0.000000 0.000000
                        CHANNELS 3 Zrotation Xrotation Yrotation
                        JOINT RightHand
                        {
                            OFFSET -27.825975 0.000000 0.000000
                            CHANNELS 3 Zrotation Xrotation Yrotation
                            End Site
                            {
                                OFFSET -13.236923 0.000000 0.000000
                            }
                        }
                    }
                }
            }
        }
    }
    JOINT LeftUpLeg
    {
        OFFSET 8.824615 0.000000 0.000000
        CHANNELS 3 Zrotation Xrotation Yrotation
        JOINT LeftLeg
        {
            OFFSET -0.000000 -35.111282 0.000000
            CHANNELS 3 Zrotation Xrotation Yrotation
            JOINT LeftFoot
            {
                OFFSET -0.000000 -42.324711 0.000000
                CHANNELS 3 Zrotation Xrotation Yrotation
                JOINT LeftToeBase
                {
                    OFFSET -0.000000 -5.735999 13.236923
                    CHANNELS 3 Zrotation Xrotation Yrotation
                    End Site
                    {
                        OFFSET -0.000000 0.000000 3.529846
                    }
                }
            }
        }
    }
    JOINT RightUpLeg
    {
        OFFSET -8.824615 0.000000 0.000000
        CHANNELS 3 Zrotation Xrotation Yrotation
        JOINT RightLeg
        {
            OFFSET -0.000000 -35.111282 0.000000
            CHANNELS 3 Zrotation Xrotation Yrotation
            JOINT RightFoot
            {
                OFFSET -0.000000 -42.324711 0.000000
                CHANNELS 3 Zrotation Xrotation Yrotation
                JOINT RightToeBase
                {
                    OFFSET -0.000000 -5.735999 13.236923
                    CHANNELS 3 Zrotation Xrotation Yrotation
                    End Site
                    {
                        OFFSET -0.000000 0.000000 3.529846
                    }
                }
            }
        }
    }
}
MOTION
Frames:    4
Frame Time:    0.008333
3.492780    84.244049    111.540947    -1.653586    -8.632572    -174.658310    -0.835128    -17.709810    2.444991    0.175121    10.346175    2.559278    -1.382232    5.076527    -7.945377    8.299772    -10.720721    -6.191182    -1.093626    17.876976    2.507748    -54.504719    20.811861    -23.121994    0.462505    -8.239924    -6.554516    8.501948    -8.183524    0.410233    9.795924    22.735905    -6.993742    35.837749    41.605782    36.525669    -5.585811    -12.241802    25.393385    -7.394382    -10.929765    -1.236031    2.252672    -15.881066    -5.261412    -0.068186    19.757881    10.684402    -7.439972    -10.558464    -14.271217    -0.910140    -0.878159    1.010463    -12.784512    -0.534026    -4.580386    1.407375    -0.465518    -6.063957    9.588819    -3.587757    -7.902503    0.041929    -1.008470    -0.045412    
3.409184    84.213379    111.515068    -1.540305    -8.654675    -174.582870    -0.714321    -17.664366    2.536994    0.154191    10.216084    2.634211    -1.391984    5.007011    -8.029631    8.295926    -10.617724    -6.285280    -0.968412    17.579699    2.621954    -54.298668    19.561468    -22.611948    0.396836    -8.269316    -6.428770    7.718928    -8.234935    0.184549    9.817562    22.772327    -7.066140    36.059818    41.624142    36.127079    -5.472491    -12.528405    25.557762    -7.198368    -11.244089    -1.118044    2.255306    -16.192341    -5.379500    -0.093890    20.277445    10.790754    -7.354916    -10.773602    -14.305235    -0.880679    -0.935652    0.977856    -12.776833    -0.584688    -4.633360    1.462740    -0.347284    -6.150709    9.687679    -3.605275    -7.795729    0.032129    -1.007923    -0.034798
3.322160    84.181519    111.490997    -1.414649    -8.683331    -174.490402    -0.599221    -17.614164    2.619651    0.147185    10.069501    2.699529    -1.397804    4.925339    -8.108826    8.291632    -10.497395    -6.375664    -0.808906    17.249884    2.719296    -54.029900    18.290934    -22.092546    0.360389    -8.324403    -6.377838    6.923305    -8.308373    -0.064144    9.839917    22.811592    -7.149279    36.328091    41.620090    35.670036    -5.311502    -12.832082    25.679012    -7.000374    -11.589446    -0.980220    2.265777    -16.523432    -5.490460    -0.119802    20.811548    10.860722    -7.264564    -10.988708    -14.320005    -0.849971    -0.999470    0.943871    -12.768582    -0.666868    -4.695224    1.527509    -0.176634    -6.209221    9.792511    -3.636225    -7.720182    0.017142    -1.011256    -0.018566
3.230573    84.148582    111.468872    -1.274492    -8.720338    -174.379242    -0.491504    -17.558306    2.692329    0.157750    9.900865    2.754596    -1.400961    4.832579    -8.182405    8.291237    -10.359022    -6.460692    -0.610010    16.884239    2.799340    -53.693539    16.993132    -21.557878    0.367999    -8.415576    -6.416340    6.118700    -8.413001    -0.337300    9.861116    22.853680    -7.244869    36.655003    41.586102    35.139412    -5.096800    -13.154069    25.751522    -6.794278    -11.968594    -0.820950    2.285748    -16.876923    -5.590301    -0.145740    21.360260    10.893080    -7.167092    -11.203451    -14.318762    -0.818428    -1.069164    0.908960    -12.760199    -0.789211    -4.765295    1.602926    0.058708    -6.238716    9.906231    -3.680961    -7.678318    -0.003416    -1.020871    0.003701
